<?xml version="1.0" standalone="no"?>
<!DOCTYPE svg PUBLIC "-//W3C//DTD SVG 20010904//EN"
 "http://www.w3.org/TR/2001/REC-SVG-20010904/DTD/svg10.dtd">
<svg version="1.0" xmlns="http://www.w3.org/2000/svg"
 width="116.000000pt" height="116.000000pt" viewBox="0 0 116.000000 116.000000"
 preserveAspectRatio="xMidYMid meet">
<metadata>
Created by potrace 1.14, written by Peter Selinger 2001-2017
</metadata>
<g transform="translate(0.000000,116.000000) scale(0.100000,-0.100000)"
fill="#000000" stroke="none">
<path d="M1 689 l1 -439 528 0 c413 0 529 3 532 12 2 7 4 204 4 438 l-1 425
-532 1 -532 1 0 -438z"/>
<path d="M1107 304 c-3 -3 -3 -12 0 -20 4 -10 10 -11 24 -3 12 6 19 6 19 0 0
-5 -9 -13 -21 -16 -11 -4 -18 -9 -16 -12 3 -2 15 1 27 7 27 15 20 36 -11 32
-19 -2 -21 -1 -9 7 8 6 10 11 4 11 -6 0 -13 -3 -17 -6z"/>
<path d="M125 183 c-10 -3 -12 -119 -2 -129 12 -12 25 7 21 31 -3 18 0 25 11
25 8 0 15 5 15 10 0 6 -6 10 -14 10 -9 0 -13 7 -11 18 4 22 -6 40 -20 35z"/>
<path d="M217 183 c-7 -12 -8 -95 -1 -115 12 -37 22 -16 23 47 0 57 -10 89
-22 68z"/>
<path d="M302 124 c-18 -37 -31 -69 -28 -71 3 -3 11 7 18 21 9 21 17 26 32 22
12 -3 27 -6 34 -6 6 0 12 -7 12 -15 0 -8 2 -15 4 -15 2 0 12 -3 21 -6 12 -5 8
11 -19 65 -20 39 -37 71 -39 71 -1 0 -17 -30 -35 -66z m46 -2 c2 -7 -5 -12
-17 -12 -14 0 -19 5 -14 15 6 17 25 15 31 -3z"/>
<path d="M445 182 c-6 -4 -10 -34 -10 -67 1 -46 5 -61 17 -63 12 -2 15 4 12
28 -5 38 6 38 39 0 25 -28 47 -39 47 -23 0 4 -10 17 -21 29 -20 21 -20 24 -5
39 18 18 19 25 8 41 -9 14 -73 26 -87 16z m63 -33 c2 -9 -5 -19 -14 -23 -18
-7 -34 8 -34 32 0 19 44 11 48 -9z"/>
<path d="M583 117 c-1 -50 2 -66 9 -54 5 10 9 28 8 40 -4 43 1 42 29 -7 l29
-48 27 46 c15 25 28 46 30 46 2 0 3 -18 3 -40 0 -44 8 -62 21 -42 10 17 7 127
-4 126 -6 0 -24 -21 -42 -47 l-31 -47 -21 36 c-12 19 -21 39 -21 43 0 5 -8 11
-18 13 -16 4 -18 -3 -19 -65z"/>
<path d="M805 120 c-19 -38 -31 -70 -26 -70 5 0 13 9 16 20 6 19 16 24 43 21
6 -1 12 3 12 9 0 5 -7 10 -15 10 -17 0 -19 9 -6 29 7 11 16 1 35 -37 15 -29
31 -52 36 -52 6 0 10 2 10 5 0 7 -62 135 -66 135 -2 0 -20 -31 -39 -70z"/>
<path d="M947 183 c-11 -10 -8 -121 3 -128 5 -3 8 12 6 39 -2 25 -1 48 1 50 3
2 27 -19 54 -47 30 -32 49 -46 50 -37 5 50 3 120 -3 120 -4 0 -8 -18 -10 -41
l-3 -41 -46 46 c-25 26 -49 43 -52 39z"/>
<path d="M180 120 c0 -5 5 -10 10 -10 6 0 10 5 10 10 0 6 -4 10 -10 10 -5 0
-10 -4 -10 -10z"/>
</g>
</svg>
